<svg xmlns="http://www.w3.org/2000/svg" width="28" height="28" viewBox="0 0 28 28" fill="none">
  <path d="M2.27783 13.6668C2.27783 9.37176 2.27783 7.22425 3.61212 5.88996C4.94641 4.55566 7.09392 4.55566 11.3889 4.55566H15.9445C20.2395 4.55566 22.387 4.55566 23.7213 5.88996C25.0556 7.22425 25.0556 9.37176 25.0556 13.6668V15.9446C25.0556 20.2396 25.0556 22.3871 23.7213 23.7214C22.387 25.0557 20.2395 25.0557 15.9445 25.0557H11.3889C7.09392 25.0557 4.94641 25.0557 3.61212 23.7214C2.27783 22.3871 2.27783 20.2396 2.27783 15.9446V13.6668Z" stroke="#4B4B4B" stroke-width="2.5"/>
  <path d="M7.97217 4.5555V2.84717" stroke="#4B4B4B" stroke-width="2.5" stroke-linecap="round"/>
  <path d="M19.3613 4.5555V2.84717" stroke="#4B4B4B" stroke-width="2.5" stroke-linecap="round"/>
  <path d="M2.84717 10.25H24.4861" stroke="#4B4B4B" stroke-width="2.5" stroke-linecap="round"/>
</svg>