<svg width="255" height="29" viewBox="0 0 255 29" fill="none" xmlns="http://www.w3.org/2000/svg">
<path id="Vector" d="M14.6188 29.001C12.5012 29.001 10.5495 28.6713 8.76362 28.0116C7.00324 27.3266 5.45964 26.3626 4.13307 25.1196C2.83189 23.8766 1.81154 22.4177 1.07151 20.7434C0.357255 19.069 0 17.2297 0 15.2256C0 13.2215 0.357255 11.3822 1.07151 9.70782C1.81154 8.03348 2.84478 6.57474 4.17135 5.33173C5.49791 4.08859 7.05441 3.13735 8.84018 2.47763C10.6261 1.79268 12.5906 1.45021 14.7336 1.45021C17.1063 1.45021 19.2366 1.84351 21.1245 2.62985C23.038 3.41632 24.6453 4.55794 25.9465 6.0547L21.9665 9.70782C20.997 8.69321 19.9382 7.94476 18.7901 7.46274C17.6421 6.95537 16.3921 6.70162 15.0398 6.70162C13.7387 6.70162 12.5523 6.90454 11.4808 7.31052C10.4093 7.71636 9.47788 8.29991 8.68707 9.0609C7.92177 9.82202 7.32222 10.7226 6.8884 11.7628C6.48037 12.803 6.27609 13.9572 6.27609 15.2256C6.27609 16.4687 6.48037 17.6103 6.8884 18.6505C7.32222 19.6906 7.92177 20.6039 8.68707 21.3903C9.47788 22.1514 10.3964 22.7349 11.4425 23.1408C12.514 23.5466 13.6875 23.7497 14.9633 23.7497C16.1879 23.7497 17.3743 23.5593 18.5223 23.1788C19.6958 22.773 20.8312 22.1006 21.9282 21.162L25.449 25.6143C23.9948 26.7051 22.2981 27.5422 20.3593 28.1258C18.4458 28.7093 16.5323 29.001 14.6188 29.001ZM19.7852 24.8151V14.807H25.449V25.6143L19.7852 24.8151ZM29.2562 28.5444V0.308594H35.2261V28.5444H29.2562ZM49.033 28.8487C46.8388 28.8487 44.8871 28.3922 43.1778 27.4788C41.494 26.5656 40.1545 25.3226 39.1595 23.7497C38.19 22.1514 37.7053 20.3375 37.7053 18.308C37.7053 16.2531 38.19 14.4393 39.1595 12.8664C40.1545 11.2681 41.494 10.0251 43.1778 9.13708C44.8871 8.22373 46.8388 7.76719 49.033 7.76719C51.2015 7.76719 53.1406 8.22373 54.8501 9.13708C56.5596 10.0251 57.898 11.2553 58.868 12.8282C59.8379 14.4012 60.3223 16.2277 60.3223 18.308C60.3223 20.3375 59.8379 22.1514 58.868 23.7497C57.898 25.3226 56.5596 26.5656 54.8501 27.4788C53.1406 28.3922 51.2015 28.8487 49.033 28.8487ZM49.033 23.978C50.028 23.978 50.9211 23.7496 51.7119 23.293C52.5027 22.8363 53.1277 22.1894 53.5871 21.3523C54.0463 20.4897 54.2758 19.4749 54.2758 18.308C54.2758 17.1156 54.0463 16.1008 53.5871 15.2637C53.1277 14.4265 52.5027 13.7796 51.7119 13.3229C50.9211 12.8662 50.028 12.638 49.033 12.638C48.038 12.638 47.145 12.8662 46.3542 13.3229C45.5634 13.7796 44.9254 14.4265 44.4407 15.2637C43.9815 16.1008 43.7518 17.1156 43.7518 18.308C43.7518 19.4749 43.9815 20.4897 44.4407 21.3523C44.9254 22.1894 45.5634 22.8363 46.3542 23.293C47.145 23.7496 48.038 23.978 49.033 23.978ZM74.9524 28.8487C73.14 28.8487 71.5842 28.4682 70.2835 27.7071C68.9816 26.9461 67.9869 25.7917 67.2981 24.2444C66.6094 22.6713 66.2644 20.6925 66.2644 18.308C66.2644 15.8978 66.6211 13.919 67.3359 12.3715C68.0754 10.8242 69.0962 9.66979 70.3981 8.90867C71.6988 8.14768 73.2169 7.76719 74.9524 7.76719C76.891 7.76719 78.6252 8.19838 80.1563 9.0609C81.7121 9.92341 82.9373 11.1411 83.8304 12.7141C84.7483 14.2871 85.2079 16.1517 85.2079 18.308C85.2079 20.4389 84.7483 22.2908 83.8304 23.8638C82.9373 25.4367 81.7121 26.667 80.1563 27.555C78.6252 28.4174 76.891 28.8487 74.9524 28.8487ZM62.7817 28.5444V0.308594H68.7524V12.2194L68.3697 18.2699L68.4842 24.3584V28.5444H62.7817ZM73.9186 23.978C74.9133 23.978 75.7934 23.7496 76.559 23.293C77.3506 22.8363 77.9755 22.1894 78.4338 21.3523C78.9194 20.4897 79.1616 19.4749 79.1616 18.308C79.1616 17.1156 78.9194 16.1008 78.4338 15.2637C77.9755 14.4265 77.3506 13.7796 76.559 13.3229C75.7934 12.8662 74.9133 12.638 73.9186 12.638C72.9239 12.638 72.0308 12.8662 71.2392 13.3229C70.4489 13.7796 69.8239 14.4265 69.3644 15.2637C68.9048 16.1008 68.6756 17.1156 68.6756 18.308C68.6756 19.4749 68.9048 20.4897 69.3644 21.3523C69.8239 22.1894 70.4489 22.8363 71.2392 23.293C72.0308 23.7496 72.9239 23.978 73.9186 23.978ZM99.9656 28.5444V24.5487L99.5828 23.6735V16.5195C99.5828 15.2509 99.1883 14.2615 98.3967 13.5513C97.6312 12.841 96.4451 12.4857 94.8385 12.4857C93.7409 12.4857 92.6564 12.6633 91.5849 13.0185C90.5394 13.3483 89.6463 13.8049 88.9068 14.3885L86.7637 10.2407C87.886 9.4542 89.2375 8.84543 90.8193 8.41398C92.4012 7.98278 94.0091 7.76719 95.6418 7.76719C98.7795 7.76719 101.217 8.50296 102.951 9.97424C104.687 11.4455 105.554 13.7416 105.554 16.862V28.5444H99.9656ZM93.6901 28.8487C92.0822 28.8487 90.7048 28.5824 89.5564 28.0497C88.4094 27.4917 87.5293 26.7431 86.9161 25.8045C86.3041 24.8659 85.9982 23.8129 85.9982 22.6461C85.9982 21.4283 86.2911 20.3629 86.8783 19.4495C87.4902 18.5363 88.4472 17.826 89.7478 17.3185C91.0498 16.7858 92.7462 16.5195 94.8385 16.5195H100.311V19.9824H95.4882C94.0847 19.9824 93.116 20.2106 92.5796 20.6673C92.0692 21.124 91.8153 21.6947 91.8153 22.3797C91.8153 23.1408 92.1083 23.7497 92.6955 24.2062C93.3074 24.6375 94.1367 24.8531 95.1822 24.8531C96.1769 24.8531 97.0701 24.6249 97.8616 24.1682C98.6519 23.6863 99.2261 22.9886 99.5828 22.0752L100.502 24.8151C100.068 26.1342 99.2769 27.1364 98.1298 27.8213C96.9815 28.5063 95.5012 28.8487 93.6901 28.8487ZM109.426 28.5444V0.308594H115.395V28.5444H109.426ZM119.827 28.5444V1.90688H124.954L140.76 21.0858H138.272V1.90688H144.395V28.5444H139.306L123.462 9.36535H125.95V28.5444H119.827ZM158.579 28.8487C156.383 28.8487 154.432 28.3922 152.724 27.4788C151.04 26.5656 149.7 25.3226 148.706 23.7497C147.734 22.1514 147.251 20.3375 147.251 18.308C147.251 16.2531 147.734 14.4393 148.706 12.8664C149.7 11.2681 151.04 10.0251 152.724 9.13708C154.432 8.22373 156.383 7.76719 158.579 7.76719C160.746 7.76719 162.687 8.22373 164.396 9.13708C166.104 10.0251 167.444 11.2553 168.414 12.8282C169.383 14.4012 169.868 16.2277 169.868 18.308C169.868 20.3375 169.383 22.1514 168.414 23.7497C167.444 25.3226 166.104 26.5656 164.396 27.4788C162.687 28.3922 160.746 28.8487 158.579 28.8487ZM158.579 23.978C159.573 23.978 160.468 23.7496 161.258 23.293C162.047 22.8363 162.673 22.1894 163.133 21.3523C163.592 20.4897 163.822 19.4749 163.822 18.308C163.822 17.1156 163.592 16.1008 163.133 15.2637C162.673 14.4265 162.047 13.7796 161.258 13.3229C160.468 12.8662 159.573 12.638 158.579 12.638C157.584 12.638 156.689 12.8662 155.899 13.3229C155.11 13.7796 154.471 14.4265 153.987 15.2637C153.527 16.1008 153.298 17.1156 153.298 18.308C153.298 19.4749 153.527 20.4897 153.987 21.3523C154.471 22.1894 155.11 22.8363 155.899 23.293C156.689 23.7496 157.584 23.978 158.579 23.978ZM198.696 7.76719C200.328 7.76719 201.768 8.09698 203.021 8.75658C204.294 9.39069 205.289 10.3801 206.005 11.7248C206.743 13.0438 207.116 14.7436 207.116 16.8238V28.5444H201.145V17.7372C201.145 16.088 200.801 14.8704 200.112 14.084C199.424 13.2977 198.452 12.9044 197.204 12.9044C196.334 12.9044 195.558 13.1074 194.869 13.5132C194.181 13.8938 193.644 14.4773 193.261 15.2637C192.879 16.05 192.687 17.0522 192.687 18.2699V28.5444H186.718V17.7372C186.718 16.088 186.373 14.8704 185.684 14.084C185.02 13.2977 184.063 12.9044 182.814 12.9044C181.945 12.9044 181.169 13.1074 180.48 13.5132C179.791 13.8938 179.255 14.4773 178.872 15.2637C178.489 16.05 178.298 17.0522 178.298 18.2699V28.5444H172.329V8.07151H178.031V13.6654L176.96 12.0291C177.673 10.634 178.681 9.58094 179.983 8.87065C181.308 8.13501 182.814 7.76719 184.498 7.76719C186.384 7.76719 188.03 8.24908 189.435 9.21312C190.862 10.1517 191.807 11.5978 192.267 13.5513L190.161 12.9804C190.85 11.3822 191.948 10.1137 193.453 9.1751C194.984 8.2364 196.731 7.76719 198.696 7.76719ZM223.564 28.5444V24.5487L223.182 23.6735V16.5195C223.182 15.2509 222.786 14.2615 221.996 13.5513C221.23 12.841 220.044 12.4857 218.436 12.4857C217.337 12.4857 216.255 12.6633 215.184 13.0185C214.137 13.3483 213.243 13.8049 212.504 14.3885L210.361 10.2407C211.482 9.4542 212.835 8.84543 214.418 8.41398C215.998 7.98278 217.605 7.76719 219.239 7.76719C222.378 7.76719 224.813 8.50296 226.549 9.97424C228.283 11.4455 229.151 13.7416 229.151 16.862V28.5444H223.564ZM217.288 28.8487C215.681 28.8487 214.304 28.5824 213.155 28.0497C212.007 27.4917 211.127 26.7431 210.515 25.8045C209.902 24.8659 209.596 23.8129 209.596 22.6461C209.596 21.4283 209.889 20.3629 210.476 19.4495C211.088 18.5363 212.045 17.826 213.347 17.3185C214.647 16.7858 216.343 16.5195 218.436 16.5195H223.908V19.9824H219.087C217.682 19.9824 216.714 20.2106 216.178 20.6673C215.667 21.124 215.413 21.6947 215.413 22.3797C215.413 23.1408 215.706 23.7497 216.293 24.2062C216.905 24.6375 217.734 24.8531 218.781 24.8531C219.776 24.8531 220.666 24.6249 221.459 24.1682C222.25 23.6863 222.824 22.9886 223.182 22.0752L224.1 24.8151C223.666 26.1342 222.876 27.1364 221.727 27.8213C220.579 28.5063 219.097 28.8487 217.288 28.8487ZM242.012 28.8487C240.073 28.8487 238.327 28.4174 236.769 27.555C235.214 26.667 233.976 25.4367 233.057 23.8638C232.165 22.2908 231.717 20.4389 231.717 18.308C231.717 16.1517 232.165 14.2871 233.057 12.7141C233.976 11.1411 235.214 9.92341 236.769 9.0609C238.327 8.19838 240.073 7.76719 242.012 7.76719C243.747 7.76719 245.266 8.14768 246.566 8.90867C247.867 9.66979 248.876 10.8242 249.589 12.3715C250.305 13.919 250.661 15.8978 250.661 18.308C250.661 20.6925 250.317 22.6713 249.627 24.2444C248.938 25.7917 247.944 26.9461 246.643 27.7071C245.368 28.4682 243.824 28.8487 242.012 28.8487ZM243.046 23.978C244.016 23.978 244.896 23.7496 245.686 23.293C246.479 22.8363 247.103 22.1894 247.561 21.3523C248.048 20.4897 248.289 19.4749 248.289 18.308C248.289 17.1156 248.048 16.1008 247.561 15.2637C247.103 14.4265 246.479 13.7796 245.686 13.3229C244.896 12.8662 244.016 12.638 243.046 12.638C242.051 12.638 241.159 12.8662 240.366 13.3229C239.576 13.7796 238.939 14.4265 238.454 15.2637C237.994 16.1008 237.765 17.1156 237.765 18.308C237.765 19.4749 237.994 20.4897 238.454 21.3523C238.939 22.1894 239.576 22.8363 240.366 23.293C241.159 23.7496 242.051 23.978 243.046 23.978ZM248.441 28.5444V24.3584L248.556 18.2699L248.174 12.2194V0.308594H254.144V28.5444H248.441Z" fill="#0B3B2D"/>
</svg>
