<svg width="102" height="101" viewBox="0 0 102 101" fill="none" xmlns="http://www.w3.org/2000/svg">
<path id="Vector" fill-rule="evenodd" clip-rule="evenodd" d="M51.2313 0C79.1379 0 101.76 22.5461 101.76 50.358C101.76 78.17 79.1379 100.716 51.2313 100.716C23.3249 100.716 0.702148 78.17 0.702148 50.358C0.702148 22.5461 23.3249 0 51.2313 0ZM49.4048 3.76826C43.6407 4.57676 38.1518 9.19305 33.8907 16.9138C32.6547 19.1533 31.5395 21.6274 30.5677 24.299C36.3615 22.8478 42.7258 21.9924 49.4048 21.8601V3.76826ZM26.2972 25.5085C27.5057 21.7284 28.984 18.2508 30.6902 15.1594C32.8024 11.332 35.3092 8.02696 38.1333 5.48844C22.7753 9.93369 10.6696 21.9984 6.20925 37.3046C8.75634 34.4897 12.0727 31.9915 15.9131 29.8865C19.0149 28.1862 22.5044 26.7126 26.2972 25.5085ZM25.0835 29.7643C23.6277 35.5384 22.7693 41.8813 22.6366 48.5378H4.48321C5.29447 42.7927 9.92645 37.3225 17.6734 33.0763C19.9205 31.8444 22.4031 30.733 25.0835 29.7643ZM26.2902 48.5378C26.441 41.2734 27.4902 34.4534 29.2263 28.4277C35.2728 26.6974 42.1163 25.6515 49.4048 25.5011V33.3643C46.6856 40.3019 41.1396 45.8289 34.178 48.5378H26.2902ZM22.6366 52.1783H4.48321C5.29447 57.9234 9.92645 63.3934 17.6734 67.6398C19.9205 68.8717 22.4031 69.9829 25.0835 70.9518C23.6277 65.1776 22.7693 58.8347 22.6366 52.1783ZM29.2263 72.2886C27.4902 66.2627 26.441 59.4426 26.2902 52.1783H34.178C41.1396 54.8871 46.6861 60.4142 49.4048 67.352V75.2152C42.1163 75.0648 35.2728 74.0185 29.2263 72.2886ZM26.2972 75.2078C22.5044 74.0035 19.0149 72.5299 15.9131 70.8298C12.0727 68.7248 8.75634 66.2262 6.20925 63.4115C10.6696 78.7177 22.7753 90.7823 38.1333 95.2275C35.3092 92.689 32.8024 89.3839 30.6902 85.5563C28.984 82.4652 27.5057 78.9878 26.2972 75.2078ZM49.4048 96.9477C43.6407 96.1393 38.1518 91.5229 33.8907 83.8023C32.6547 81.563 31.5395 79.0885 30.5677 76.4171C36.3615 77.8683 42.7258 78.7235 49.4048 78.856V96.9477ZM64.3293 95.2275C67.1534 92.689 69.6606 89.3839 71.7726 85.5563C73.4786 82.4652 74.9571 78.9878 76.1656 75.2078C79.9585 74.0035 83.4476 72.5299 86.5496 70.8298C90.3898 68.7248 93.7065 66.2262 96.2533 63.4115C91.793 78.7177 79.6873 90.7823 64.3293 95.2275ZM71.8951 76.4171C70.9229 79.0885 69.8078 81.563 68.5719 83.8023C64.3115 91.5229 58.8223 96.1393 53.0578 96.9477V78.856C59.737 78.7235 66.1013 77.8683 71.8951 76.4171ZM77.3791 70.9518C80.0594 69.9829 82.5423 68.8717 84.7894 67.6398C92.5362 63.3934 97.1682 57.9234 97.9793 52.1783H79.8263C79.6932 58.8347 78.8351 65.1776 77.3791 70.9518ZM76.1728 52.1783C76.0222 59.4426 74.9722 66.2627 73.2365 72.2886C67.1901 74.0185 60.3467 75.0648 53.0578 75.2152V67.3578C55.7758 60.4173 61.3232 54.888 68.2868 52.1783H76.1728ZM79.8263 48.5378H97.9793C97.1682 42.7927 92.5362 37.3225 84.7894 33.0763C82.5423 31.8444 80.0594 30.733 77.3791 29.7643C78.8351 35.5384 79.6932 41.8813 79.8263 48.5378ZM73.2365 28.4277C74.9722 34.4534 76.0222 41.2734 76.1728 48.5378H68.2868C61.3232 45.8281 55.7758 40.2987 53.0578 33.3585V25.5011C60.3467 25.6515 67.1901 26.6974 73.2365 28.4277ZM76.1656 25.5085C79.9585 26.7126 83.4476 28.1862 86.5496 29.8865C90.3898 31.9915 93.7065 34.4897 96.2533 37.3046C91.793 21.9984 79.6873 9.93369 64.3293 5.48844C67.1534 8.02696 69.6606 11.332 71.7726 15.1594C73.4786 18.2508 74.9571 21.7284 76.1656 25.5085ZM53.0578 3.76826C58.8223 4.57676 64.3115 9.19305 68.5719 16.9138C69.8078 19.1533 70.9229 21.6274 71.8951 24.299C66.1013 22.8478 59.737 21.9924 53.0578 21.8601V3.76826Z" fill="#0B3B2D"/>
</svg>
