<svg width="20" height="20" viewBox="0 0 20 20" fill="none" xmlns="http://www.w3.org/2000/svg">
<g id="Bold / Like / Star">
<path id="Vector" d="M7.62772 4.50633C8.68326 2.61279 9.21103 1.66602 10.0001 1.66602C10.7891 1.66602 11.3169 2.61279 12.3724 4.50633L12.6455 4.99621C12.9455 5.5343 13.0955 5.80334 13.3293 5.98085C13.5631 6.15837 13.8544 6.22427 14.4368 6.35606L14.9671 6.47604C17.0169 6.93981 18.0417 7.1717 18.2856 7.95579C18.5294 8.73989 17.8307 9.55691 16.4333 11.191L16.0718 11.6137C15.6747 12.078 15.4762 12.3102 15.3869 12.5974C15.2975 12.8847 15.3276 13.1944 15.3876 13.814L15.4423 14.378C15.6535 16.5582 15.7591 17.6483 15.1208 18.1329C14.4824 18.6175 13.5229 18.1756 11.6037 17.292L11.1072 17.0634C10.5618 16.8123 10.2891 16.6867 10.0001 16.6867C9.71104 16.6867 9.43835 16.8123 8.89299 17.0634L8.39648 17.292C6.47731 18.1756 5.51773 18.6175 4.87937 18.1329C4.24102 17.6483 4.34665 16.5582 4.55791 14.378L4.61257 13.814C4.6726 13.1944 4.70262 12.8847 4.6133 12.5974C4.52398 12.3102 4.32544 12.078 3.92835 11.6137L3.56683 11.191C2.16946 9.55691 1.47077 8.73989 1.7146 7.95579C1.95843 7.1717 2.9833 6.93981 5.03303 6.47604L5.56332 6.35606C6.14579 6.22427 6.43703 6.15837 6.67087 5.98085C6.90471 5.80334 7.05469 5.5343 7.35464 4.99621L7.62772 4.50633Z" fill="#FFC23D"/>
</g>
</svg>
